HIERARCHY
ROOT pelvis
{
  OFFSET 0 100 0
  CHANNELS 6 Xposition Yposition Zposition Zrotation Xrotation Yrotation
  JOINT pelvis_right_femur
  {
    OFFSET -10.78128 -3.44521 -0.5502486
    CHANNELS 3 Zrotation Xrotation Yrotation
    JOINT right_femur_tibia
    {
      OFFSET -0.8047443 -44.0398 -0.1307829
      CHANNELS 3 Zrotation Xrotation Yrotation
      JOINT right_tibia_foot
      {
        OFFSET 3.006224 -47.83518 -5
        CHANNELS 3 Zrotation Xrotation Yrotation
        End Site
        {
          OFFSET 0 -5 15
        }
      }
    }
  }
  JOINT pelvis_left_femur
  {
    OFFSET 10.78128 -3.44521 -0.5502486
    CHANNELS 3 Zrotation Xrotation Yrotation
    JOINT left_femur_tibia
    {
      OFFSET 0.8047443 -44.0398 -0.1307829
      CHANNELS 3 Zrotation Xrotation Yrotation
      JOINT left_tibia_foot
      {
        OFFSET -4.370144 -48.10324 -4.275266
        CHANNELS 3 Zrotation Xrotation Yrotation
        End Site
        {
          OFFSET 0 -5 15
        }
      }
    }
  }
  JOINT pelvis_spine1
  {
    OFFSET 0 6.468898 -3.129235
    CHANNELS 3 Zrotation Xrotation Yrotation
    JOINT spine1
    {
      OFFSET 0 23.15396 4.99043
      CHANNELS 3 Zrotation Xrotation Yrotation
      JOINT spine2
      {
        OFFSET 0 20.79997 -5.064912
        CHANNELS 3 Zrotation Xrotation Yrotation
        JOINT neck
        {
          OFFSET 0 14.38658 9.616178
          CHANNELS 3 Zrotation Xrotation Yrotation
          End Site
          {
            OFFSET 0 20 0
          }
        }
      }
      JOINT right_manubrium
      {
        OFFSET -5.722621 16.35077 3.967754
        CHANNELS 3 Zrotation Xrotation Yrotation
        JOINT right_clavicle
        {
          OFFSET -13.16364 1.694482 -4.693211
          CHANNELS 3 Zrotation Xrotation Yrotation
          JOINT right_humerus
          {
            OFFSET -28.5034 -0.3100689 -2.792744
            CHANNELS 3 Zrotation Xrotation Yrotation
            JOINT right_radius
            {
              OFFSET -25.15693 0.02248979 -1.271978
              CHANNELS 3 Zrotation Xrotation Yrotation
              End Site
              {
                OFFSET -15 0 0
              }
            }
          }
        }
      }
      JOINT left_manubrium
      {
        OFFSET 5.722621 16.35077 3.967754
        CHANNELS 3 Zrotation Xrotation Yrotation
        JOINT left_clavicle
        {
          OFFSET 13.16364 1.694482 -4.693211
          CHANNELS 3 Zrotation Xrotation Yrotation
          JOINT left_humerus
          {
            OFFSET 29.39168 -1.063119 -2.237045
            CHANNELS 3 Zrotation Xrotation Yrotation
            JOINT left_radius
            {
              OFFSET 24.59957 -0.9528479 0.9047498
              CHANNELS 3 Zrotation Xrotation Yrotation
              End Site
              {
                OFFSET 15 -0 -0
              }
            }
          }
        }
      }
    }
  }
}
MOTION
Frames: 17
Frame Time: 0.0416666666667
-1670.007 110.636 732.2706 0.1220601 10.34697 -173.5772 6.765618 11.14413 -2.17377 -0 20.65855 -0 -7.117279 -3.843781 0.5975909 2.820019 -13.82808 -3.85521 -0 17.07511 -0 1.43887 0.1484861 12.24178 3.141434 -6.040462 8.39752 0.1480122 19.77725 -6.699966 0.5094729 19.50053 3.515439 0.6480656 -19.96724 4.621977 -1.895109 -34.52469 15.09406 91.81821 8.145006 -14.53628 -0 0 27.2446 -31.22618 19.79081 18.40114 0.5299656 -25.79027 -12.12395 -96.85261 12.82389 41.65894 0 0 -15.85531 2.364186 16.99255 10.88557
-1671.916 110.6217 726.7423 0.1925209 10.34591 -173.9695 6.765618 11.14413 -2.17377 -0 20.65855 -0 -7.117279 -3.843781 0.5975909 2.820019 -13.82808 -3.85521 -0 17.07511 -0 1.43887 0.1484861 12.24178 3.141434 -6.040462 8.39752 0.1480122 19.77725 -6.699966 0.5094729 19.50053 3.515439 0.6480656 -19.96724 4.621977 -1.895109 -34.52469 15.09406 91.81821 8.145006 -14.53628 -0 0 27.2446 -31.22618 19.79081 18.40114 0.5299656 -25.79027 -12.12395 -96.85261 12.82389 41.65894 0 0 -15.85531 2.364186 16.99255 10.88557
-1673.788 110.6075 721.2013 0.2629725 10.34437 -174.3619 6.765618 11.14413 -2.17377 -0 20.65855 -0 -7.117279 -3.843781 0.5975909 2.820019 -13.82808 -3.85521 -0 17.07511 -0 1.43887 0.1484861 12.24178 3.141434 -6.040462 8.39752 0.1480122 19.77725 -6.699966 0.5094729 19.50053 3.515439 0.6480656 -19.96724 4.621977 -1.895109 -34.52469 15.09406 91.81821 8.145006 -14.53628 -0 0 27.2446 -31.22618 19.79081 18.40114 0.5299656 -25.79027 -12.12395 -96.85261 12.82389 41.65894 0 0 -15.85531 2.364186 16.99255 10.88557
-1675.622 110.5932 715.6478 0.3334113 10.34236 -174.7542 6.765618 11.14413 -2.17377 -0 20.65855 -0 -7.117279 -3.843781 0.5975909 2.820019 -13.82808 -3.85521 -0 17.07511 -0 1.43887 0.1484861 12.24178 3.141434 -6.040462 8.39752 0.1480122 19.77725 -6.699966 0.5094729 19.50053 3.515439 0.6480656 -19.96724 4.621977 -1.895109 -34.52469 15.09406 91.81821 8.145006 -14.53628 -0 0 27.2446 -31.22618 19.79081 18.40114 0.5299656 -25.79027 -12.12395 -96.85261 12.82389 41.65894 0 0 -15.85531 2.364186 16.99255 10.88557
-1677.419 110.5789 710.0821 0.403834 10.33988 -175.1465 6.765618 11.14413 -2.17377 -0 20.65855 -0 -7.117279 -3.843781 0.5975909 2.820019 -13.82808 -3.85521 -0 17.07511 -0 1.43887 0.1484861 12.24178 3.141434 -6.040462 8.39752 0.1480122 19.77725 -6.699966 0.5094729 19.50053 3.515439 0.6480656 -19.96724 4.621977 -1.895109 -34.52469 15.09406 91.81821 8.145006 -14.53628 -0 0 27.2446 -31.22618 19.79081 18.40114 0.5299656 -25.79027 -12.12395 -96.85261 12.82389 41.65894 0 0 -15.85531 2.364186 16.99255 10.88557
-1679.178 110.5646 704.5044 0.4742371 10.33692 -175.5388 6.765618 11.14413 -2.17377 -0 20.65855 -0 -7.117279 -3.843781 0.5975909 2.820019 -13.82808 -3.85521 -0 17.07511 -0 1.43887 0.1484861 12.24178 3.141434 -6.040462 8.39752 0.1480122 19.77725 -6.699966 0.5094729 19.50053 3.515439 0.6480656 -19.96724 4.621977 -1.895109 -34.52469 15.09406 91.81821 8.145006 -14.53628 -0 0 27.2446 -31.22618 19.79081 18.40114 0.5299656 -25.79027 -12.12395 -96.85261 12.82389 41.65894 0 0 -15.85531 2.364186 16.99255 10.88557
-1680.9 110.5503 698.9149 0.5446173 10.33349 -175.9311 6.765618 11.14413 -2.17377 -0 20.65855 -0 -7.117279 -3.843781 0.5975909 2.820019 -13.82808 -3.85521 -0 17.07511 -0 1.43887 0.1484861 12.24178 3.141434 -6.040462 8.39752 0.1480122 19.77725 -6.699966 0.5094729 19.50053 3.515439 0.6480656 -19.96724 4.621977 -1.895109 -34.52469 15.09406 91.81821 8.145006 -14.53628 -0 0 27.2446 -31.22618 19.79081 18.40114 0.5299656 -25.79027 -12.12395 -96.85261 12.82389 41.65894 0 0 -15.85531 2.364186 16.99255 10.88557
-1682.584 110.5361 693.314 0.6149712 10.32959 -176.3233 6.765618 11.14413 -2.17377 -0 20.65855 -0 -7.117279 -3.843781 0.5975909 2.820019 -13.82808 -3.85521 -0 17.07511 -0 1.43887 0.1484861 12.24178 3.141434 -6.040462 8.39752 0.1480122 19.77725 -6.699966 0.5094729 19.50053 3.515439 0.6480656 -19.96724 4.621977 -1.895109 -34.52469 15.09406 91.81821 8.145006 -14.53628 -0 0 27.2446 -31.22618 19.79081 18.40114 0.5299656 -25.79027 -12.12395 -96.85261 12.82389 41.65894 0 0 -15.85531 2.364186 16.99255 10.88557
-1684.23 110.5218 687.7019 0.6852953 10.32521 -176.7156 6.765618 11.14413 -2.17377 -0 20.65855 -0 -7.117279 -3.843781 0.5975909 2.820019 -13.82808 -3.85521 -0 17.07511 -0 1.43887 0.1484861 12.24178 3.141434 -6.040462 8.39752 0.1480122 19.77725 -6.699966 0.5094729 19.50053 3.515439 0.6480656 -19.96724 4.621977 -1.895109 -34.52469 15.09406 91.81821 8.145006 -14.53628 -0 0 27.2446 -31.22618 19.79081 18.40114 0.5299656 -25.79027 -12.12395 -96.85261 12.82389 41.65894 0 0 -15.85531 2.364186 16.99255 10.88557
-1685.838 110.5075 682.0789 0.7555862 10.32036 -177.1079 6.765618 11.14413 -2.17377 -0 20.65855 -0 -7.117279 -3.843781 0.5975909 2.820019 -13.82808 -3.85521 -0 17.07511 -0 1.43887 0.1484861 12.24178 3.141434 -6.040462 8.39752 0.1480122 19.77725 -6.699966 0.5094729 19.50053 3.515439 0.6480656 -19.96724 4.621977 -1.895109 -34.52469 15.09406 91.81821 8.145006 -14.53628 -0 0 27.2446 -31.22618 19.79081 18.40114 0.5299656 -25.79027 -12.12395 -96.85261 12.82389 41.65894 0 0 -15.85531 2.364186 16.99255 10.88557
-1687.409 110.4932 676.4451 0.8258406 10.31503 -177.5001 6.765618 11.14413 -2.17377 -0 20.65855 -0 -7.117279 -3.843781 0.5975909 2.820019 -13.82808 -3.85521 -0 17.07511 -0 1.43887 0.1484861 12.24178 3.141434 -6.040462 8.39752 0.1480122 19.77725 -6.699966 0.5094729 19.50053 3.515439 0.6480656 -19.96724 4.621977 -1.895109 -34.52469 15.09406 91.81821 8.145006 -14.53628 -0 0 27.2446 -31.22618 19.79081 18.40114 0.5299656 -25.79027 -12.12395 -96.85261 12.82389 41.65894 0 0 -15.85531 2.364186 16.99255 10.88557
-1688.941 110.4789 670.8008 0.896055 10.30923 -177.8924 6.765618 11.14413 -2.17377 -0 20.65855 -0 -7.117279 -3.843781 0.5975909 2.820019 -13.82808 -3.85521 -0 17.07511 -0 1.43887 0.1484861 12.24178 3.141434 -6.040462 8.39752 0.1480122 19.77725 -6.699966 0.5094729 19.50053 3.515439 0.6480656 -19.96724 4.621977 -1.895109 -34.52469 15.09406 91.81821 8.145006 -14.53628 -0 0 27.2446 -31.22618 19.79081 18.40114 0.5299656 -25.79027 -12.12395 -96.85261 12.82389 41.65894 0 0 -15.85531 2.364186 16.99255 10.88557
-1690.435 110.4647 665.1464 0.9662261 10.30296 -178.2846 6.765618 11.14413 -2.17377 -0 20.65855 -0 -7.117279 -3.843781 0.5975909 2.820019 -13.82808 -3.85521 -0 17.07511 -0 1.43887 0.1484861 12.24178 3.141434 -6.040462 8.39752 0.1480122 19.77725 -6.699966 0.5094729 19.50053 3.515439 0.6480656 -19.96724 4.621977 -1.895109 -34.52469 15.09406 91.81821 8.145006 -14.53628 -0 0 27.2446 -31.22618 19.79081 18.40114 0.5299656 -25.79027 -12.12395 -96.85261 12.82389 41.65894 0 0 -15.85531 2.364186 16.99255 10.88557
-1691.892 110.4504 659.4821 1.03635 10.29621 -178.6768 6.765618 11.14413 -2.17377 -0 20.65855 -0 -7.117279 -3.843781 0.5975909 2.820019 -13.82808 -3.85521 -0 17.07511 -0 1.43887 0.1484861 12.24178 3.141434 -6.040462 8.39752 0.1480122 19.77725 -6.699966 0.5094729 19.50053 3.515439 0.6480656 -19.96724 4.621977 -1.895109 -34.52469 15.09406 91.81821 8.145006 -14.53628 -0 0 27.2446 -31.22618 19.79081 18.40114 0.5299656 -25.79027 -12.12395 -96.85261 12.82389 41.65894 0 0 -15.85531 2.364186 16.99255 10.88557
-1693.31 110.4361 653.808 1.106425 10.289 -179.069 6.765618 11.14413 -2.17377 -0 20.65855 -0 -7.117279 -3.843781 0.5975909 2.820019 -13.82808 -3.85521 -0 17.07511 -0 1.43887 0.1484861 12.24178 3.141434 -6.040462 8.39752 0.1480122 19.77725 -6.699966 0.5094729 19.50053 3.515439 0.6480656 -19.96724 4.621977 -1.895109 -34.52469 15.09406 91.81821 8.145006 -14.53628 -0 0 27.2446 -31.22618 19.79081 18.40114 0.5299656 -25.79027 -12.12395 -96.85261 12.82389 41.65894 0 0 -15.85531 2.364186 16.99255 10.88557
-1694.69 110.4218 648.1246 1.176445 10.28131 -179.4611 6.765618 11.14413 -2.17377 -0 20.65855 -0 -7.117279 -3.843781 0.5975909 2.820019 -13.82808 -3.85521 -0 17.07511 -0 1.43887 0.1484861 12.24178 3.141434 -6.040462 8.39752 0.1480122 19.77725 -6.699966 0.5094729 19.50053 3.515439 0.6480656 -19.96724 4.621977 -1.895109 -34.52469 15.09406 91.81821 8.145006 -14.53628 -0 0 27.2446 -31.22618 19.79081 18.40114 0.5299656 -25.79027 -12.12395 -96.85261 12.82389 41.65894 0 0 -15.85531 2.364186 16.99255 10.88557
-1696.031 110.4076 642.4319 1.246409 10.27315 -179.8533 6.765618 11.14413 -2.17377 -0 20.65855 -0 -7.117279 -3.843781 0.5975909 2.820019 -13.82808 -3.85521 -0 17.07511 -0 1.43887 0.1484861 12.24178 3.141434 -6.040462 8.39752 0.1480122 19.77725 -6.699966 0.5094729 19.50053 3.515439 0.6480656 -19.96724 4.621977 -1.895109 -34.52469 15.09406 91.81821 8.145006 -14.53628 -0 0 27.2446 -31.22618 19.79081 18.40114 0.5299656 -25.79027 -12.12395 -96.85261 12.82389 41.65894 0 0 -15.85531 2.364186 16.99255 10.88557
